<svg xmlns="http://www.w3.org/2000/svg" width="40" height="40" viewBox="0 0 24 24" fill="white">
  <path d="M12 .5C5.73.5.5 5.73.5 12.02c0 5.11 3.3 9.44 7.87 10.97.58.11.79-.25.79-.56 0-.28-.01-1.03-.02-2.02-3.2.7-3.88-1.54-3.88-1.54-.53-1.36-1.29-1.72-1.29-1.72-1.05-.71.08-.7.08-.7 1.16.08 1.77 1.2 1.77 1.2 1.03 1.77 2.7 1.26 3.36.97.1-.75.4-1.26.72-1.55-2.55-.29-5.23-1.28-5.23-5.71 0-1.26.45-2.29 1.2-3.1-.12-.29-.52-1.45.12-3.02 0 0 .97-.31 3.18 1.18a11.05 11.05 0 0 1 2.9-.39c.98 0 1.97.13 2.9.39 2.2-1.49 3.17-1.18 3.17-1.18.64 1.57.24 2.73.12 3.02.75.81 1.2 1.84 1.2 3.1 0 4.44-2.69 5.41-5.25 5.69.41.35.77 1.05.77 2.12 0 1.53-.01 2.76-.01 3.14 0 .31.21.68.8.56A10.52 10.52 0 0 0 23.5 12C23.5 5.73 18.27.5 12 .5Z"/>
</svg>